<?xml version="1.0" encoding="utf-8"?>
<!-- Generator: Adobe Illustrator 25.3.1, SVG Export Plug-In . SVG Version: 6.00 Build 0)  -->
<svg version="1.1" xmlns="http://www.w3.org/2000/svg" xmlns:xlink="http://www.w3.org/1999/xlink" x="0px" y="0px"
	 viewBox="0 0 760 200" style="enable-background:new 0 0 760 200;" xml:space="preserve">
<style type="text/css">
	.st0{fill:#FFFFFF;}
	.st1{fill:none;}
	.st2{fill:#595C5C;}
</style>
<g id="Capa_1">
	<path class="st0" d="M126,45l-2.7,2.8l-0.3,0.3l0,0l-2.6,2.6l-5.5-0.9l-8.4,9.3l2.7,2.4h0.4L95.3,75.8c4.7-8.4,7.5-17.8,8.7-28.3
		c0.1,0,0.3-0.1,0.4-0.2l2-2c3.4-3.7,5.9-8,7.3-12.5L126,45z"/>
	<polygon class="st0" points="121.6,58.8 117.5,62.7 113.8,58.7 111.2,58.7 116.2,53.2 118.8,53.7 	"/>
	<path class="st0" d="M98.2,98.1c0.3-0.3,0.8-0.3,1.1,0l5.5,5.5c0.3,0.3,0.3,0.8,0,1.2c-4.5,4.1-32.1,30.2-38.2,60l-0.3,0.3
		l-0.6-0.6l0,0l-0.7-0.7l0,0l-9.8-9.6c-0.3-0.3-0.3-0.8,0-1.1c5.7-5.8,10.1-11.2,13.3-17c0.1-0.1,0.2-0.2,0.3-0.3
		c0.8-1.4,1.5-3.1,2.2-4.9c1-2.4,1.7-4.9,2.3-7.6c0.1,0,0.2-0.1,0.3-0.2L98.2,98.1z"/>
	<path class="st0" d="M97.9,90.6l5-5c0.4-0.4,1-0.3,1.3,0.2l3,5c0.2,0.3,0.1,0.7-0.1,1l-4,4c-0.3,0.3-0.8,0.3-1.1,0l-4-4
		C97.6,91.5,97.6,90.9,97.9,90.6"/>
	<path class="st0" d="M67.8,130.1C67.8,130.1,67.8,130.2,67.8,130.1c-0.7,1.8-1.5,3.4-2.5,5l-5.3-5.3v-4.7
		C61.9,127.5,64.6,129.5,67.8,130.1"/>
	<path class="st0" d="M60,117.2c3.2-3.4,7.1-5.6,11.5-6.5c-0.1,3.7-0.4,7.1-1,10.2c-0.2,1-0.9,3.6-1.7,6.3
		C63.2,126.5,60.1,120.5,60,117.2"/>
	<path class="st0" d="M74.2,116.6c0.2-2,0.3-4.1,0.4-6.4c0.3,0,0.7,0,1-0.1c0.4,0,0.8-0.4,0.8-0.8V108c0-0.5-0.4-0.8-0.8-0.8
		c-10.7,0.3-19.7,7.2-24.4,18.6c-0.2,0.4,0,0.9,0.5,1.1l1.3,0.5c0.4,0.2,0.9,0,1-0.5c0.9-2.2,2-4.2,3.2-6v8.1c-3.9,0.5-7,3.1-10.6,7
		c-3.1-3.8-4.7-8.7-4.7-14.7c0-11.1,6.6-22.7,18-28.8H60c0.1,0,8.9-4,16.7-4.4c0.3,0,0.5,0.2,0.7,0.4c1.1,1.8,3,5.9,3,11.1
		C80.2,107.3,76.9,113.1,74.2,116.6"/>
	<path class="st0" d="M78.4,85.3l-0.7-0.2c-0.5,0-0.9,0-1.4,0c-5.4,0.2-10.8,1.5-15.7,3.8c0-0.8,0.1-1.5,0.3-2.2
		c0.6-2,1.5-3.8,2.8-5.5c3.1-3.1,15.6-15.6,18.5-18.6c0.2-0.2,0.3-0.3,0.5-0.5c1.9-1.5,3.6-2.3,6-2.4l7.4,7.4
		c-3.3,8.2-8.1,15.5-14.6,22.3C80.4,86.5,78.7,85.5,78.4,85.3"/>
	<path class="st0" d="M99.6,56.1c-0.6,2.8-1.4,5.4-2.3,8l-6.5-6.5v-6.8C92.9,53.6,95.9,55.6,99.6,56.1"/>
	<path class="st0" d="M91,44v-1c1.4-1.7,2.9-2.9,4.3-3.7c0.9-0.5,1.8-0.9,2.8-1.3c1.4-0.5,2.7-0.7,3.6-0.7
		c-0.1,5.6-0.6,10.8-1.5,15.8C95.2,52.6,91.8,48.4,91,44"/>
	<path class="st0" d="M83.3,22.4c6.6-6,15.7-9.1,25.2-8.5c0.2,0,0.5,0.1,0.6,0.3c1.7,2.5,2.8,6.4,2.8,10.3c0,8.9-4.7,15.4-7.5,18.5
		c0.1-2.1,0.2-4.2,0.2-6.4c0.3,0,0.6,0,0.9,0c0.4,0,0.8-0.4,0.8-0.8v-1.4c0-0.5-0.4-0.8-0.8-0.8c-3.2,0.1-6.2,0.7-8.9,1.8
		c-0.5,0.2-0.9,0.4-1.4,0.6h-0.1c-0.1,0.1-0.3,0.1-0.4,0.2c-5.7,2.9-10.1,8.1-12.9,15.4c-0.2,0.4,0.1,0.9,0.5,1l1.3,0.5
		c0.4,0.1,0.9-0.1,1-0.5c0.7-1.9,1.8-4.1,3.2-6.3v3.3l-0.2,6.9c-1.6,0.3-4.5,1.2-6.9,3.4c-0.6,0.5-1.2,1-1.8,1.6
		c-2.7-3.1-5.5-8.2-5.5-15.8C73.3,36.6,76.9,28.3,83.3,22.4"/>
	<path class="st0" d="M16.3,114.9l57-56.2c1,2,2.2,3.7,3.4,5L63.4,77c-0.8,0.8-1.5,1.5-2.1,2.3c-0.3,0.3-0.5,0.5-0.5,0.5L60.7,80
		c-0.1,0.1-1.9,2.5-2.7,6.1c-0.4,1.5-0.6,3-0.7,4.6c-2.2,1.2-4.2,2.7-6.1,4.3c-8,6.8-12.4,16.2-12.4,26.4c0,6.9,1.9,12.6,5.7,17
		c-0.6,0.7-1.3,1.5-2,2.3l0,0L16.3,114.9z"/>
	<path class="st0" d="M56.5,172.2l-1.8,1.8c-0.3,0.3-0.8,0.3-1.2,0l-18.3-20c-0.3-0.3-0.3-0.8,0-1.1c3.8-3.9,6.9-7.5,9.4-10.4
		c5.3-6.2,8.7-10.1,12.9-10.6c0.2,0,0.4,0,0.6,0.2l5.3,5.4l0.1-0.1l0.3,0.3c-3.1,4.8-7.2,9.3-12.2,14.4c-0.2,0.2-0.2,0.4-0.2,0.6
		v1.5c0,0.2,0.1,0.4,0.2,0.6l11.2,11c0,0,0.1,0.1,0.2,0.1L56.5,172.2z"/>
	<path class="st0" d="M62,175.4c-0.3,0.1-0.7,0.1-0.9-0.2l-1.1-1.1c-0.3-0.3-0.3-0.7-0.1-1.1l4.7-4.6l4.1,4L62,175.4z"/>
	<path class="st0" d="M87,184.6l-13.6-13.5l-3.9-3.8c0-0.1,0-0.1,0-0.2l0,0c0.1-0.5,0.2-1.3,0.5-2.2c0-0.1,0.1-0.2,0.1-0.3l0,0
		c0.4-1.4,0.8-2.9,1-3.9c0.1-0.6,0.5-1.8,1-3c0.5-1.4,1-2.8,1.5-4.2c0.1-0.1,0.1-0.2,0.1-0.2l0,0C82.1,132,98,116.2,107.3,107
		l2.4-2.4c0.3-0.3,0.3-0.8,0-1.1l-5.1-5.1l6.3-6.3c0.3-0.3,0.3-0.7,0.1-1l-6.2-10.3c-0.3-0.5-0.9-0.5-1.3-0.2l-9.9,9.9
		c-0.3,0.3-0.3,0.8,0,1.1l3,3L81.2,110c1.1-3,1.9-6.5,1.9-10.5c0-2.5-0.4-4.7-0.9-6.7l30.9-30.6l4.2,4.5l8-7.6l-3.2-5.9l2.3-2.3
		l15.6,0.3c1,0,1.5,0.2,1.7,0.3c-0.1,0.2-0.3,0.6-0.9,1.1l-2.3,2.2c-5,1.5-9.8,4.1-13.7,7.5c-7.5,6.4-11.7,15.2-11.7,24.8
		c0,6,1.5,11,4.6,15c-4.8,4.3-10.3,12-14.6,26l-0.6,1.8c-0.2,0.6,0.3,1.1,0.9,1l4.6-0.7l-2.1,6.2c-0.2,0-0.5,0.1-0.7,0.3L76,165.9
		c-0.4,0.4-0.4,1,0,1.3l0.3,0.3c2.3,2.3,5.3,3.4,8.3,3.4s6-1.1,8.3-3.4l16.1-16.1c0.1,0.4,0.1,0.9,0.2,1.4l1.3,8.1L87,184.6z"/>
	<path class="st0" d="M130.1,126.3c-0.3-0.3-0.3-0.8,0-1.1c0.4-0.4,0.8-0.8,1.2-1.2c7.4-7.9,11.6-15,13.8-24.4
		c-1.1,9-4.4,19.5-12.2,29.3L130.1,126.3z"/>
	<path class="st0" d="M144,77.4c0,0.2,0.1,0.3,0.1,0.5c-0.1,5.4-0.3,10-0.8,14.1c-5.2-0.7-9.2-5.2-9.5-10.7c2.8-2.5,5.9-3.9,9.4-4.3
		C143.6,76.9,143.9,77.1,144,77.4"/>
	<path class="st0" d="M142.9,95c-0.6,3.4-1.3,6.4-2.4,9.3l-6.5-6.5c-0.2-0.2-0.2-0.4-0.2-0.6v-7.6C136,92.5,139.2,94.5,142.9,95"/>
	<path class="st0" d="M147.1,78.9c0-1.1,0-2.1,0-3.2c0-0.2-0.1-0.4-0.2-0.6l-1-1c-0.2-0.2-0.4-0.2-0.6-0.2
		c-8.3,0.1-14.9,4.6-20.1,13.7c-0.2,0.4-0.1,0.9,0.3,1.1l1.2,0.7c0.4,0.2,0.9,0.1,1.1-0.3c0.9-1.7,1.9-3.1,2.9-4.4v13.9
		c0,0.2,0.1,0.4,0.2,0.6l8.2,8.2c-2.7,5.9-6.6,11-12.3,16.8l-18.5,2.9c-0.6,0.1-1.1-0.5-0.9-1.1c4.2-12.4,9.4-18.8,13.7-22.1
		c0.2-0.2,0.3-0.4,0.3-0.6V101c0-0.6-0.7-1-1.3-0.7c-0.1,0.1-0.3,0.2-0.4,0.3c-2.6-3.5-4-7.9-4-13.2c0-14.8,12.6-30.8,33-31.2
		c0.9,1.4,3.1,5.4,3.1,10.8c0,4.4-1.4,9-4,13l-0.6,0.6C147.3,79.9,147.2,79.4,147.1,78.9"/>
	<path class="st0" d="M113,158.6l-1-6c-0.2-1.1-0.3-2.1-0.3-3.1c4.2-2.3,8.1-4.8,11.6-7.6l3.3,3L113,158.6z"/>
	<path class="st0" d="M110.3,140.6l-2.1-2.1l2.7-7.8l2.3,2.1c-0.4,2-1.1,3.6-1.8,5.4C110.9,139,110.6,139.8,110.3,140.6"/>
	<path class="st0" d="M105.2,140.8c0.4-0.4,1-0.4,1.3,0l4,4c0.4,0.4,0.4,1,0,1.3l-19.7,19.7c-2.9,2.9-7.2,3.4-10.6,1.6
		c-0.6-0.3-0.7-1.1-0.2-1.5L105.2,140.8z"/>
	<path class="st0" d="M114.5,144.9C114.5,144.9,114.5,144.8,114.5,144.9l-1.9-1.9c0.4-1.3,0.9-2.5,1.4-3.7c0.6-1.4,1.1-2.7,1.6-4.2
		l5.7,5.1C119.2,141.8,116.9,143.4,114.5,144.9"/>
	<path class="st0" d="M132,145.2c-0.3,0.3-0.8,0.3-1.1,0L114,129.6l13-2l11.3,10.7c0.3,0.3,0.3,0.9,0,1.2L132,145.2z"/>
	<path class="st0" d="M142,141.2l3.9,2.5c0.5,0.3,0.5,1.1,0,1.4l-5.2,2.9c-0.3,0.2-0.7,0.1-0.9-0.1l-2.1-2c-0.3-0.3-0.3-0.8,0-1.2
		l3.4-3.4C141.2,141,141.6,141,142,141.2"/>
	<path class="st0" d="M176.8,94.8l-26.3,26.3c0.6-1.3,1.4-2.6,2.2-3.9c1.8-2.9,3.7-5.9,3.7-9.6c0-1.4-0.6-4-1.2-5.9
		c0-0.2,0-0.3,0-0.5c3.6-6,7.6-11.4,11.6-16.2L176.8,94.8z"/>
	<path class="st0" d="M179.2,66.9c-6.3,6.2-15.1,15-22.9,26.3l0,0c-0.1,0.2-0.3,0.4-0.4,0.7c-1,1.4-2,2.9-2.9,4.5l0,0l-1.6,2.6
		c-0.1,0.2-0.2,0.5,0,0.8l0.2,0.5c0.1,0.2,0.2,0.5,0.3,0.8c0.7,2.6,1,4.2,1,4.8c0,2.7-1.5,5.1-3.1,7.8c-1.8,2.9-3.9,6.2-4.2,10.6
		l-7.7,7.7l-3.1-2.9c10.4-13,13-26.9,13.4-36.4c0.1-3.6,0-6.8-0.3-9.5l24.5-24.5c0.3-0.3,0.8-0.3,1.1,0l6.1,6.1L179.2,66.9z"/>
	<path class="st0" d="M154.5,62.9l10.6-0.2L153.8,74c0.7-2.4,1.1-4.8,1.1-7.3C154.9,65.5,154.7,64.2,154.5,62.9"/>
	<path class="st0" d="M178.6,59.2c-0.3,0.3-0.8,0.3-1.1,0l-3.8-3.8l0,0l-0.2-0.2c-0.3-0.3-0.3-0.8,0-1.1l4.6-4.6
		c0.4-0.4,1-0.3,1.3,0.2l2.9,5.1c0.2,0.3,0.1,0.7-0.1,1L178.6,59.2z"/>
	<path class="st0" d="M217.2,36.5l-23,22.9c-0.2,0.2-0.4,0.2-0.6,0.2h-11.3l3.5-3.5c0.3-0.3,0.3-0.7,0.1-1l-6-10.5
		c-0.3-0.5-0.9-0.5-1.3-0.2l-9.5,9.5c-0.3,0.3-0.3,0.8,0,1.1l1.7,1.7l-2.8,2.8L153.8,60c-1.2-3.7-2.8-6-2.9-6.1l-0.4-0.6h-0.7
		c-1.9,0-3.9,0.2-5.8,0.5c1-1.4,0.9-2.6,0.6-3.3c-0.4-0.9-1.5-2.1-4.5-2.1l-10.8-0.2c-0.7,0-1.1-0.9-0.6-1.4l22.6-22.7
		c0.2-0.2,0.4-0.2,0.6-0.2h16.5c1,0,1.5,0.2,1.7,0.3c-0.1,0.2-0.3,0.6-0.9,1.1l-5.3,5.2c-1.1,1.1-0.8,2.2-0.7,2.7
		c0.8,1.9,3.7,2.1,4.6,2.1h48.8C217.4,35.2,217.7,36,217.2,36.5"/>
	<path class="st0" d="M240.4,97.2c0-4.5-0.8-7.9-1.3-9.9l10.5-1.1l0.8,0.8c-0.5,3.1-0.5,10.1-0.4,15.9c-2.5,0.9-7.7,2.7-14.6,2.7
		c-11.7,0-18.9-7.3-18.9-19.3c0-11.7,9.5-19.9,21.1-19.9c5.4,0,10,1.6,13.3,3.5c-0.6,2.6-1.8,7.6-2.3,10c-3.1-2.2-8.4-4.2-13.3-4.2
		c-2.8,0-5.2,0.5-6.7,1.2c-1.3,2-2.2,5-2.2,8.5c0,7.4,3.7,12.3,9.5,12.3C237.7,97.8,239.1,97.6,240.4,97.2"/>
	<path class="st0" d="M270.6,105.7c-8.9,0-14.6-5.6-14.6-14.6s6.4-15.3,15.3-15.3s14.3,5.7,14.3,14.7
		C285.6,99.3,279.9,105.7,270.6,105.7 M270.9,83.4c-4,0-6.1,3.3-6.1,7.7c0,4.5,2.3,7.8,6.2,7.8s5.7-3.2,5.7-7.9
		C276.8,86.2,274.9,83.4,270.9,83.4"/>
	<path class="st0" d="M300.4,82.6c1.4-3.1,4.9-6.7,9.8-6.7c6.3,0,10.7,5.2,10.7,14.3c0,9.7-6.4,15.5-15.8,15.5
		c-5.5,0-9.3-1-14.1-2.7l0.5-5.1V76.1c0-3.2-0.7-8.4-1.3-11.3l10.2-1.6L300.4,82.6L300.4,82.6z M300.4,84.1v13.6
		c1.6,0.5,3.1,0.8,4.5,0.8c4.8,0,6.7-2.8,6.7-7.8c0-4.4-2.1-7.3-6.8-7.3C303.3,83.4,301.6,83.7,300.4,84.1"/>
	<path class="st0" d="M336.8,104.9h-9.9c0.5-4.3,0.5-8.3,0.5-13.2c0-6.2-0.7-10.8-1.3-13.9l10.2-1.9v15.7
		C336.2,96.5,336.2,100.8,336.8,104.9 M326.1,66.7c0-3,2.4-5.7,5.6-5.7c3.1,0,5.2,2.3,5.2,5.3c0,3.2-2.3,5.7-5.5,5.7
		C328.4,72,326.1,69.6,326.1,66.7"/>
	<path class="st0" d="M358.4,105.7c-9.9,0-16.1-5.3-16.1-14.6c0-9,6.7-15.2,14.9-15.2c7.1,0,12.4,4.1,12.4,12.4
		c0,1.1-0.2,3.2-0.5,4.6l-17.2,0.5c0.8,3.5,3.7,5.7,8.2,5.7c3.7,0,6.7-1.1,8.8-2.1l-1.1,7.5C365.4,105,362,105.7,358.4,105.7
		 M351.7,89.8l9.2-0.8c0.1-0.4,0.1-1,0.1-1.4c0-2.8-0.9-4.9-3.9-4.9c-3.2,0-5.4,3-5.4,6.9L351.7,89.8L351.7,89.8z"/>
	<path class="st0" d="M375.7,104.9c0.4-3.7,0.5-8.1,0.5-12.4v-0.8c0-6.2-0.7-10.8-1.3-14l9.9-1.9V84l0.3,0.1c1.6-4.4,4-8.3,7.5-8.3
		c1,0,1.9,0.3,2.6,0.8l-1.7,10.2c-2.6-0.8-6.1-1.3-8.5-1.2v6.8c0,4.4,0,8.9,0.5,12.4L375.7,104.9L375.7,104.9z"/>
	<path class="st0" d="M400.1,104.9c0.4-3.7,0.5-8.1,0.5-12.4c0-6.6-0.7-11.7-1.3-14.8l9.9-1.9v7.7l0.3,0.1c2-5.2,5.7-7.8,9.8-7.8
		c4.6,0,8.3,3,8.3,8.5v8.1c0,4.4,0,8.9,0.5,12.4h-9.4v-16c0-3-1.2-4.4-4.6-4.4c-1.6,0-3.4,0.3-4.6,0.7v7.4c0,4.4,0,8.9,0.5,12.4
		L400.1,104.9L400.1,104.9z"/>
	<path class="st0" d="M448.1,105.7c-8.9,0-14.6-5.6-14.6-14.6s6.4-15.3,15.3-15.3s14.3,5.7,14.3,14.7
		C463.2,99.3,457.4,105.7,448.1,105.7 M448.4,83.4c-4,0-6.1,3.3-6.1,7.7c0,4.5,2.3,7.8,6.2,7.8c4,0,5.7-3.2,5.7-7.9
		C454.3,86.2,452.5,83.4,448.4,83.4"/>
	<path class="st0" d="M567.7,104.9c0.4-3.7,0.5-9.4,0.5-18.4s-0.3-15-0.5-18c3.8-0.5,9-1.1,14.4-1.1c10.5,0,16.3,4.5,16.3,13.3
		c0,8.7-5.7,13.7-14.4,13.7c-2.8,0-4.7-0.1-6.5-0.3c0,4.6,0.1,7.4,0.3,10.7h-10.1V104.9z M582,74.5c-1.7,0-3.2,0.2-4.4,0.4v12.3
		c1.6,0.3,3.4,0.4,4.8,0.4c1.6,0,3-0.3,4.2-0.7c0.8-1.2,1.6-3.1,1.6-5.8C588.2,76.5,585.9,74.5,582,74.5"/>
	<path class="st0" d="M622.6,89.1c0-5.6-0.5-8.5-1.3-11.5l10.2-1.6v13.9c0,8.6,0.3,10.8,1.1,13.9l-9,1.9c-0.2-2-0.4-3.7-0.5-6.6
		l-0.3-0.1c-2.1,4.5-5.7,6.7-9.7,6.7c-4.7,0-8.3-2.9-8.3-8.5v-8.1c0-4.4-0.5-8.3-1.3-11.2l10.2-1.9v17.6c0,3.2,1.2,4.7,4.7,4.7
		c1.5,0,3.3-0.3,4.5-0.7v-8.5C622.9,89.1,622.6,89.1,622.6,89.1z"/>
	<path class="st0" d="M653.7,105.7c-9.9,0-16.1-5.3-16.1-14.6c0-9,6.6-15.1,14.9-15.1c7.1,0,12.3,4.1,12.3,12.3
		c0,1.1-0.2,3.2-0.5,4.5l-17.2,0.5c0.7,3.5,3.6,5.7,8.2,5.7c3.6,0,6.7-1.1,8.8-2.1l-1.1,7.5C660.6,105,657.3,105.7,653.7,105.7
		 M647,89.8l9.2-0.8c0.1-0.4,0.1-1,0.1-1.4c0-2.8-0.9-4.9-3.9-4.9c-3.2,0-5.4,3-5.4,6.8L647,89.8L647,89.8z"/>
	<path class="st0" d="M680.3,82.7c1.4-3.1,4.9-6.7,9.7-6.7c6.3,0,10.7,5.1,10.7,14.2c0,9.7-6.4,15.5-15.8,15.5c-5.5,0-9.3-1-14-2.7
		l0.5-5.1V76.2c0-3.2-0.7-8.4-1.3-11.2l10.2-1.6L680.3,82.7L680.3,82.7z M680.3,84.2v13.5c1.6,0.5,3.1,0.8,4.4,0.8
		c4.8,0,6.6-2.8,6.6-7.8c0-4.4-2.1-7.2-6.7-7.2C683.2,83.5,681.5,83.8,680.3,84.2"/>
	<path class="st0" d="M706.6,76.5c0-4-0.6-8.6-1.3-11.5l10.2-1.6v28.2c0,5,0,9.3,0.5,13.3h-9.9c0.5-4.3,0.5-8.3,0.5-13.3V76.5z"/>
	<path class="st0" d="M738.3,89.3v-2c0-2.5-0.9-3.8-3.5-3.8c-3.7,0-7.8,2.1-10.7,4.5c-0.5-1.8-1.3-6.6-1.3-8.8
		c3.2-1.7,8.6-3.2,13.9-3.2c7.1,0,10.8,3.9,10.8,9.5c0,3.8-0.3,6.9-0.3,10c0,3.4,0.3,5.5,1,8.4l-9,1.9l-0.5-5.1l-0.3-0.1
		c-1.7,2.9-4.4,5.2-8.8,5.2c-4.5,0-7.9-2.5-7.9-7.2C721.6,91.1,730.9,89.5,738.3,89.3 M733.9,99.7c1.7,0,3.3-0.4,4.4-0.7v-5.9
		c-3.5,0.1-8,0.8-8,3.7C730.3,98.7,731.7,99.7,733.9,99.7"/>
	<path class="st0" d="M514.2,63.2v23.6c0,9.1,0.3,13.5,1.1,16.9l-9.1,1.9l-0.5-6.6l-0.3-0.1c-1.6,4.1-4.4,6.7-8.9,6.7
		c-6.4,0-11.4-4.8-11.4-14c0-9.1,6.1-15.8,15-15.8c2,0,3.6,0.2,5.3,0.7v-0.2c0-4-0.6-8.6-1.3-11.5L514.2,63.2z M505.3,84.1
		c-1.5-0.5-2.8-0.7-4.1-0.7c-4.3,0-6.8,2.7-6.8,7.7c0,4.2,2.1,7,6.6,7c1.5,0,3.1-0.3,4.3-0.7V84.1z"/>
	<path class="st0" d="M536.2,105.7c-9.9,0-16.1-5.3-16.1-14.6c0-9,6.7-15.2,14.9-15.2c7.1,0,12.4,4.1,12.4,12.4
		c0,1.1-0.2,3.2-0.5,4.6l-17.2,0.5c0.8,3.5,3.7,5.7,8.2,5.7c3.7,0,6.7-1.1,8.8-2.1l-1.1,7.5C543.2,105,539.8,105.7,536.2,105.7
		 M529.5,89.8l9.2-0.8c0.1-0.4,0.1-1,0.1-1.4c0-2.8-0.9-4.9-3.9-4.9c-3.2,0-5.4,3-5.4,6.9L529.5,89.8L529.5,89.8z"/>
	<polygon class="st0" points="237.9,158.2 234.3,158.2 236.1,144.7 222.4,144.7 220.6,158.2 217,158.2 221,129 224.6,129 
		222.8,141.7 236.5,141.7 238.2,129 241.9,129 	"/>
	<path class="st0" d="M261.4,154.3c-0.2,1.1,0,1.7,1,1.7c0.4,0,0.7,0,1.3-0.2l-0.2,2.2c-0.6,0.3-1.6,0.4-2.4,0.4
		c-1.9,0-3.1-0.8-3-2.9c-1.7,1.9-4.4,3.2-7.2,3.2c-3.9,0-6.7-2.4-6.7-8c0-6.8,3.2-13.6,10.1-13.6c2.4,0,4.5,1.1,5.8,2.2l0.3-1.8h3.4
		L261.4,154.3z M259.6,142.1c-1.1-1-3-2-5-2c-5,0-6.6,6-6.6,10.2c0,4,1.5,5.4,4,5.4c2,0,3.7-0.7,6.2-3L259.6,142.1z"/>
	<path class="st0" d="M267,149.9c0-8.2,4.7-12.8,11.3-12.8c4.9,0,7.5,3.4,7,8.1l-3.3,0.2c0.1-3.3-0.6-5.4-4.1-5.4
		c-3.3,0-7,2.2-7,9.7c0,4.4,2.2,6,4.8,6c2.8,0,4.7-1.4,5.6-4.4l3.2,0.6c-1.2,4.7-4.9,6.7-9.1,6.7C269.5,158.7,267,155.1,267,149.9"
		/>
	<path class="st0" d="M287.8,149.6c0-6.8,4-12.6,11.1-12.6c4.5,0,6.6,2.4,6.6,5.4c0,3.4-2.3,5.4-5.4,6.4s-6.7,1.1-8.7,1.2
		c0,2.8,0.7,5.7,5,5.7c2.9,0,4.6-1.7,5.3-3.9l3,0.7c-1.2,4.1-4.7,6.1-8.9,6.1C289.9,158.7,287.8,154.6,287.8,149.6 M291.6,147.3
		c1,0,4.3-0.2,7.1-1c2.1-0.6,3.3-1.7,3.3-3.7c0-1.8-1.3-2.7-3.4-2.7C294.4,139.9,292.2,143.3,291.6,147.3"/>
	<path class="st0" d="M311.4,158.2h-3.7l2.9-20.7h3.4l-0.4,3.5c2.1-2.4,3.9-3.9,6.8-3.9c0.3,0,0.6,0,1,0l-0.5,3.6
		c-2.7-0.3-4.9,0.9-7.4,3L311.4,158.2z"/>
	<path class="st0" d="M333.2,158.2h-3.7l4.3-30.4h3.6l-1.9,12.6c1.6-1.4,4.5-3.3,7.6-3.3c4.2,0,6.1,2.3,5.5,7.1l-1.9,14H343
		l1.9-13.6c0.4-3.2-0.6-4.4-2.8-4.4c-2.6,0-4.8,1.6-6.9,3.1L333.2,158.2z"/>
	<path class="st0" d="M355.8,158.2h-3.7l2.9-20.7h3.7L355.8,158.2z M357.5,133.4c-1.4,0-2.3-0.8-2.3-2.1c0-1.9,1.1-3,3-3
		c1.5,0,2.3,0.7,2.3,2.1C360.4,132.3,359.3,133.4,357.5,133.4"/>
	<path class="st0" d="M377.8,143.4l-3.1,0.4c-0.1-2.3-1.2-4.1-4.2-4.1c-3.2,0-4.3,1.5-4.3,3.1c0,2,1.7,2.7,3.8,3.3
		c3.1,0.9,6.8,1.6,6.8,5.9c0,4.2-3.4,6.6-8.4,6.6c-4.9,0-7.3-2.1-7.7-6.3l3-0.7c0.3,2.3,1.2,4.2,4.9,4.2c2.2,0,4.6-0.7,4.6-3.3
		c0-2.2-1.9-2.8-4.1-3.5c-2.9-0.8-6.3-1.6-6.3-5.8c0-4.4,3.9-6.3,7.8-6.3C375.5,137.1,377.6,139.8,377.8,143.4"/>
	<path class="st0" d="M391.5,157.4c-1.1,0.7-3.1,1.3-5,1.3c-4,0-5.8-1.8-5.2-6l1.8-12.5h-3.2l0.4-2.7h3.2l0.8-6l3.7-0.5l-0.9,6.5
		h5.7l-0.4,2.7h-5.7l-1.7,12.1c-0.3,2.2,0,3.5,2.4,3.5c1.3,0,2.8-0.5,3.7-1L391.5,157.4z"/>
	<path class="st0" d="M393.8,150.2c0-0.9,0-1.8,0.2-2.6c0.8-6.3,4.6-10.5,11.2-10.5c6,0,8.1,3.7,8.1,8.4c0,0.9,0,1.7-0.2,2.6
		c-0.8,6.6-4.5,10.5-11,10.5C396.3,158.7,393.8,155.3,393.8,150.2 M409.4,147.8c0.1-0.8,0.1-1.6,0.1-2.4c0-3.6-1.6-5.4-4.8-5.4
		c-3.7,0-6.5,2.5-7.1,7.8c-0.1,0.7-0.1,1.5-0.1,2.3c0,3.8,1.6,5.8,5,5.8C406.2,155.9,408.8,153.3,409.4,147.8"/>
	<path class="st0" d="M419.9,158.2h-3.7l2.9-20.7h3.4L422,141c2.1-2.4,3.9-3.9,6.8-3.9c0.3,0,0.6,0,1,0l-0.5,3.6
		c-2.7-0.3-4.9,0.9-7.4,3L419.9,158.2z"/>
	<path class="st0" d="M433.7,158.2H430l2.9-20.7h3.7L433.7,158.2z M435.4,133.4c-1.5,0-2.3-0.8-2.3-2.1c0-1.9,1.1-3,3-3
		c1.5,0,2.3,0.7,2.3,2.1C438.4,132.3,437.3,133.4,435.4,133.4"/>
	<path class="st0" d="M456.6,154.3c-0.2,1.1,0,1.7,1,1.7c0.4,0,0.7,0,1.3-0.2l-0.2,2.2c-0.6,0.3-1.6,0.4-2.4,0.4
		c-1.9,0-3.1-0.8-3-2.9c-1.7,1.9-4.4,3.2-7.2,3.2c-3.9,0-6.7-2.4-6.7-8c0-6.8,3.2-13.6,10.1-13.6c2.4,0,4.5,1.1,5.8,2.2l0.3-1.8h3.4
		L456.6,154.3z M454.7,142.1c-1.1-1-3-2-5-2c-5,0-6.6,6-6.6,10.2c0,4,1.5,5.4,4,5.4c2,0,3.7-0.7,6.2-3L454.7,142.1z"/>
	<path class="st0" d="M463.5,158.7c-1.6,0-2.4-0.7-2.4-2.2c0-2.1,1-3.1,3.2-3.1c1.6,0,2.4,0.7,2.4,2.2
		C466.6,157.6,465.6,158.7,463.5,158.7"/>
	<polygon class="st0" points="499.8,158.2 496.2,158.2 498,144.7 484.3,144.7 482.5,158.2 478.9,158.2 482.9,129 486.5,129 
		484.7,141.7 498.4,141.7 500.1,129 503.8,129 	"/>
	<path class="st0" d="M523.3,154.3c-0.2,1.1,0,1.7,1,1.7c0.4,0,0.7,0,1.3-0.2l-0.2,2.2c-0.6,0.3-1.6,0.4-2.4,0.4
		c-1.9,0-3.1-0.8-3-2.9c-1.7,1.9-4.4,3.2-7.2,3.2c-3.9,0-6.7-2.4-6.7-8c0-6.8,3.2-13.6,10.1-13.6c2.4,0,4.5,1.1,5.8,2.2l0.3-1.8h3.4
		L523.3,154.3z M521.5,142.1c-1.1-1-3-2-5-2c-5,0-6.6,6-6.6,10.2c0,4,1.5,5.4,4,5.4c2,0,3.7-0.7,6.2-3L521.5,142.1z"/>
	<path class="st0" d="M528.9,149.9c0-8.2,4.7-12.8,11.3-12.8c4.9,0,7.5,3.4,7,8.1l-3.3,0.2c0.1-3.3-0.6-5.4-4.1-5.4
		c-3.3,0-7,2.2-7,9.7c0,4.4,2.2,6,4.8,6c2.8,0,4.7-1.4,5.6-4.4l3.2,0.6c-1.2,4.7-4.9,6.7-9.1,6.7
		C531.4,158.7,528.9,155.1,528.9,149.9"/>
	<path class="st0" d="M549.7,149.6c0-6.8,4-12.6,11.1-12.6c4.5,0,6.6,2.4,6.6,5.4c0,3.4-2.3,5.4-5.4,6.4c-3.1,1-6.7,1.1-8.6,1.2
		c0,2.8,0.7,5.7,5,5.7c2.9,0,4.6-1.7,5.3-3.9l3,0.7c-1.2,4.1-4.7,6.1-8.9,6.1C551.8,158.7,549.7,154.6,549.7,149.6 M553.5,147.3
		c1,0,4.3-0.2,7.1-1c2.1-0.6,3.3-1.7,3.3-3.7c0-1.8-1.3-2.7-3.4-2.7C556.3,139.9,554.1,143.3,553.5,147.3"/>
	<path class="st0" d="M573.3,158.2h-3.7l2.9-20.7h3.4l-0.4,3.5c2.1-2.4,3.9-3.9,6.8-3.9c0.3,0,0.6,0,1,0l-0.5,3.6
		c-2.7-0.3-4.9,0.9-7.4,3L573.3,158.2z"/>
	<path class="st0" d="M605.6,130.8c-0.8-0.3-1.9-0.5-2.9-0.5c-1.9,0-3.2,0.8-3.7,3.7l-0.5,3.5h5.8l-0.4,2.7h-5.8l-3.7,26.5h-3.7
		l3.7-26.5h-3.1l0.4-2.7h3.1l0.5-3.5c0.6-4.5,3.1-6.6,7-6.6c1.8,0,3.1,0.4,3.7,0.7L605.6,130.8z"/>
	<path class="st0" d="M618.9,137.5h3.7l-2.9,20.7h-3.3l0.4-2.7c-1.6,1.5-4.6,3.1-7.8,3.1c-4.2,0-6-2.3-5.4-7.1l1.9-14h3.7l-1.9,13.6
		c-0.1,0.9-0.2,1.6,0,2.3c0.2,1.6,1.1,2.3,2.9,2.3c2.5,0,4.9-1.4,6.7-2.9L618.9,137.5z"/>
	<path class="st0" d="M637.1,157.4c-1.1,0.7-3.1,1.3-5,1.3c-4,0-5.8-1.8-5.2-6l1.8-12.5h-3.2l0.4-2.7h3.2l0.8-6l3.7-0.5l-0.9,6.5
		h5.7l-0.4,2.7h-5.7l-1.7,12.1c-0.3,2.2,0,3.5,2.4,3.5c1.3,0,2.8-0.5,3.7-1L637.1,157.4z"/>
	<path class="st0" d="M655.3,137.5h3.7l-2.9,20.7h-3.3l0.4-2.7c-1.6,1.5-4.6,3.1-7.8,3.1c-4.2,0-6-2.3-5.4-7.1l1.9-14h3.7l-1.9,13.6
		c-0.1,0.9-0.2,1.6,0,2.3c0.2,1.6,1.1,2.3,2.9,2.3c2.5,0,4.9-1.4,6.7-2.9L655.3,137.5z"/>
	<path class="st0" d="M665.4,158.2h-3.7l2.9-20.7h3.4l-0.4,3.5c2.1-2.4,3.9-3.9,6.8-3.9c0.3,0,0.6,0,1,0l-0.5,3.6
		c-2.7-0.3-4.9,0.9-7.4,3L665.4,158.2z"/>
	<path class="st0" d="M675.1,150.2c0-0.9,0-1.8,0.2-2.6c0.8-6.3,4.6-10.5,11.2-10.5c6,0,8.1,3.7,8.1,8.4c0,0.9,0,1.7-0.2,2.6
		c-0.8,6.6-4.5,10.5-11,10.5C677.6,158.7,675.1,155.3,675.1,150.2 M690.7,147.8c0.1-0.8,0.1-1.6,0.1-2.4c0-3.6-1.6-5.4-4.8-5.4
		c-3.7,0-6.5,2.5-7.1,7.8c-0.1,0.7-0.1,1.5-0.1,2.3c0,3.8,1.6,5.8,5,5.8C687.4,155.9,690.1,153.3,690.7,147.8"/>
	<path class="st0" d="M697.6,158.7c-1.6,0-2.4-0.7-2.4-2.2c0-2.1,1-3.1,3.2-3.1c1.6,0,2.4,0.7,2.4,2.2
		C700.8,157.6,699.7,158.7,697.6,158.7"/>
	<line class="st1" x1="113.7" y1="59.8" x2="80.8" y2="92.3"/>
	<line class="st1" x1="89.3" y1="58.2" x2="97.8" y2="66.8"/>
	<line class="st1" x1="128" y1="45.2" x2="120.6" y2="52.9"/>
	<line class="st1" x1="64.4" y1="165.2" x2="52.4" y2="153.4"/>
	<path class="st2" d="M72.2,157.8c-0.4,1.2-0.8,2.4-1,3C71.5,159.8,71.8,158.8,72.2,157.8"/>
	<path class="st2" d="M69.6,167.2c0.1-0.7,0.3-1.4,0.5-2.2C69.9,166,69.7,166.8,69.6,167.2L69.6,167.2z"/>
	<path class="st2" d="M73.7,153.7c0-0.1,0.1-0.1,0.1-0.2l0,0C73.7,153.4,73.7,153.5,73.7,153.7"/>
	<polygon class="st2" points="128.9,89.7 125.4,93.3 125.4,98.7 128.9,95.1 	"/>
	<polygon class="st2" points="128.9,98.3 125.4,101.8 125.4,107.2 128.9,103.7 	"/>
	<polygon class="st2" points="128.9,106.8 125.4,110.4 125.4,115.7 128.9,112.7 	"/>
	<path class="st2" d="M145.1,139.7l-3-1.9l-1.1-1.1l40.3-40.3v-3.1l-11.7-11.4c4.4-4.9,8.6-9.1,12-12.5L184,67
		c0.3-0.3,0.3-0.8,0-1.1l-3-3h13.9c0.2,0,0.4-0.1,0.6-0.2l29-28.9c0.5-0.5,0.1-1.4-0.6-1.4h-56.1c-0.5,0-1-0.1-1.3-0.1l4.8-4.7
		c2-2,2-3.5,1.6-4.4s-1.5-2.1-4.5-2.1h-17.8c-0.2,0-0.4,0.1-0.6,0.2l-20.8,21L115,28.2l-0.2,0.2c0.2-1.2,0.2-2.4,0.2-3.6
		c0-5-1.6-10.1-4.2-13l-0.4-0.4l-0.6-0.1c-10.7-1-21,2.4-28.5,9.2c-7.1,6.5-11,15.6-11,25.5c0,3.3,0.5,6.2,1.2,8.7l-59.8,59v3
		L39.5,144c-3.1,3.3-7,7.6-8.4,9.1c-0.3,0.3-0.3,0.8,0,1.1l22.3,24.4c0.3,0.3,0.8,0.3,1.2,0l2.7-2.7l3.1,3.1
		c0.2,0.2,0.6,0.3,0.9,0.2l9.7-4.3l14.6,14.4h3l41.1-41.1l1.3,1.2c0.3,0.3,0.8,0.3,1.1,0l2.4-2.2l4.8,4.5c0.3,0.2,0.6,0.3,0.9,0.1
		l11.5-6.4c0.5-0.3,0.6-1.1,0-1.4l-5-3.3L145.1,139.7z M126,45l-2.7,2.8l-0.3,0.3l0,0l-2.6,2.6l-5.5-0.9l-8.4,9.3l2.7,2.4h0.4
		L95.3,75.8c4.7-8.4,7.5-17.8,8.7-28.3c0.1,0,0.3-0.1,0.4-0.2l2-2c3.4-3.7,5.9-8,7.3-12.5L126,45z M121.6,58.8l-4.1,3.9l-3.7-4h-2.6
		l5-5.5l2.6,0.5L121.6,58.8z M98.2,98.1c0.3-0.3,0.8-0.3,1.1,0l5.5,5.5c0.3,0.3,0.3,0.8,0,1.2c-4.5,4.1-32.1,30.2-38.2,60l-0.3,0.3
		l-0.6-0.6l0,0l-0.7-0.7l0,0l-9.8-9.6c-0.3-0.3-0.3-0.8,0-1.1c5.7-5.8,10.1-11.2,13.3-17c0.1-0.1,0.2-0.2,0.3-0.3
		c0.8-1.4,1.5-3.1,2.2-4.9c1-2.4,1.7-4.9,2.3-7.6c0.1,0,0.2-0.1,0.3-0.2L98.2,98.1z M97.9,90.6l5-5c0.4-0.4,1-0.3,1.3,0.2l3,5
		c0.2,0.3,0.1,0.7-0.1,1l-4,4c-0.3,0.3-0.8,0.3-1.1,0l-4-4C97.6,91.5,97.6,90.9,97.9,90.6 M67.8,130.1
		C67.8,130.1,67.8,130.2,67.8,130.1c-0.7,1.8-1.5,3.4-2.5,5l-5.3-5.3v-4.7C61.9,127.5,64.6,129.5,67.8,130.1 M60,117.2
		c3.2-3.4,7.1-5.6,11.5-6.5c-0.1,3.7-0.4,7.1-1,10.2c-0.2,1-0.9,3.6-1.7,6.3C63.2,126.5,60.1,120.5,60,117.2 M74.2,116.6
		c0.2-2,0.3-4.1,0.4-6.4c0.3,0,0.7,0,1-0.1c0.4,0,0.8-0.4,0.8-0.8V108c0-0.5-0.4-0.8-0.8-0.8c-10.7,0.3-19.7,7.2-24.4,18.6
		c-0.2,0.4,0,0.9,0.5,1.1l1.3,0.5c0.4,0.2,0.9,0,1-0.5c0.9-2.2,2-4.2,3.2-6v8.1c-3.9,0.5-7,3.1-10.6,7c-3.1-3.8-4.7-8.7-4.7-14.7
		c0-11.1,6.6-22.7,18-28.8H60c0.1,0,8.9-4,16.7-4.4c0.3,0,0.5,0.2,0.7,0.4c1.1,1.8,3,5.9,3,11.1C80.2,107.3,76.9,113.1,74.2,116.6
		 M78.4,85.3l-0.7-0.2c-0.5,0-0.9,0-1.4,0c-5.4,0.2-10.8,1.5-15.7,3.8c0-0.8,0.1-1.5,0.3-2.2c0.6-2,1.5-3.8,2.8-5.5
		c3.1-3.1,15.6-15.6,18.5-18.6c0.2-0.2,0.3-0.3,0.5-0.5c1.9-1.5,3.6-2.3,6-2.4l7.4,7.4c-3.3,8.2-8.1,15.5-14.6,22.3
		C80.4,86.5,78.7,85.5,78.4,85.3 M99.6,56.1c-0.6,2.8-1.4,5.4-2.3,8l-6.5-6.5v-6.8C92.9,53.6,95.9,55.6,99.6,56.1 M91,44v-1
		c1.4-1.7,2.9-2.9,4.3-3.7c0.9-0.5,1.8-0.9,2.8-1.3c1.4-0.5,2.7-0.7,3.6-0.7c-0.1,5.6-0.6,10.8-1.5,15.8C95.2,52.6,91.8,48.4,91,44
		 M83.3,22.4c6.6-6,15.7-9.1,25.2-8.5c0.2,0,0.5,0.1,0.6,0.3c1.7,2.5,2.8,6.4,2.8,10.3c0,8.9-4.7,15.4-7.5,18.5
		c0.1-2.1,0.2-4.2,0.2-6.4c0.3,0,0.6,0,0.9,0c0.4,0,0.8-0.4,0.8-0.8v-1.4c0-0.5-0.4-0.8-0.8-0.8c-3.2,0.1-6.2,0.7-8.9,1.8
		c-0.5,0.2-0.9,0.4-1.4,0.6h-0.1c-0.1,0.1-0.3,0.1-0.4,0.2c-5.7,2.9-10.1,8.1-12.9,15.4c-0.2,0.4,0.1,0.9,0.5,1l1.3,0.5
		c0.4,0.1,0.9-0.1,1-0.5c0.7-1.9,1.8-4.1,3.2-6.3v3.3l-0.2,6.9c-1.6,0.3-4.5,1.2-6.9,3.4c-0.6,0.5-1.2,1-1.8,1.6
		c-2.7-3.1-5.5-8.2-5.5-15.8C73.3,36.6,76.9,28.3,83.3,22.4 M16.3,114.9l57-56.2c1,2,2.2,3.7,3.4,5L63.4,77
		c-0.8,0.8-1.5,1.5-2.1,2.3c-0.3,0.3-0.5,0.5-0.5,0.5L60.7,80c-0.1,0.1-1.9,2.5-2.7,6.1c-0.4,1.5-0.6,3-0.7,4.6
		c-2.2,1.2-4.2,2.7-6.1,4.3c-8,6.8-12.4,16.2-12.4,26.4c0,6.9,1.9,12.6,5.7,17c-0.6,0.7-1.3,1.5-2,2.3l0,0L16.3,114.9z M56.5,172.2
		l-1.8,1.8c-0.3,0.3-0.8,0.3-1.2,0l-18.3-20c-0.3-0.3-0.3-0.8,0-1.1c3.8-3.9,6.9-7.5,9.4-10.4c5.3-6.2,8.7-10.1,12.9-10.6
		c0.2,0,0.4,0,0.6,0.2l5.3,5.4l0.1-0.1l0.3,0.3c-3.1,4.8-7.2,9.3-12.2,14.4c-0.2,0.2-0.2,0.4-0.2,0.6v1.5c0,0.2,0.1,0.4,0.2,0.6
		l11.2,11c0,0,0.1,0.1,0.2,0.1L56.5,172.2z M62,175.4c-0.3,0.1-0.7,0.1-0.9-0.2l-1.1-1.1c-0.3-0.3-0.3-0.7-0.1-1.1l4.7-4.6l4.1,4
		L62,175.4z M87,184.6l-13.6-13.5l-3.9-3.8c0-0.1,0-0.1,0-0.2l0,0c0.1-0.5,0.2-1.3,0.5-2.2c0-0.1,0.1-0.2,0.1-0.3l0,0
		c0.4-1.4,0.8-2.9,1-3.9c0.1-0.6,0.5-1.8,1-3c0.5-1.4,1-2.8,1.5-4.2c0.1-0.1,0.1-0.2,0.1-0.2l0,0C82.1,132,98,116.2,107.3,107
		l2.4-2.4c0.3-0.3,0.3-0.8,0-1.1l-5.1-5.1l6.3-6.3c0.3-0.3,0.3-0.7,0.1-1l-6.2-10.3c-0.3-0.5-0.9-0.5-1.3-0.2l-9.9,9.9
		c-0.3,0.3-0.3,0.8,0,1.1l3,3L81.2,110c1.1-3,1.9-6.5,1.9-10.5c0-2.5-0.4-4.7-0.9-6.7l30.9-30.6l4.2,4.5l8-7.6l-3.2-5.9l2.3-2.3
		l15.6,0.3c1,0,1.5,0.2,1.7,0.3c-0.1,0.2-0.3,0.6-0.9,1.1l-2.3,2.2c-5,1.5-9.8,4.1-13.7,7.5c-7.5,6.4-11.7,15.2-11.7,24.8
		c0,6,1.5,11,4.6,15c-4.8,4.3-10.3,12-14.6,26l-0.6,1.8c-0.2,0.6,0.3,1.1,0.9,1l4.6-0.7l-2.1,6.2c-0.2,0-0.5,0.1-0.7,0.3L76,165.9
		c-0.4,0.4-0.4,1,0,1.3l0.3,0.3c2.3,2.3,5.3,3.4,8.3,3.4s6-1.1,8.3-3.4l16.1-16.1c0.1,0.4,0.1,0.9,0.2,1.4l1.3,8.1L87,184.6z
		 M130.1,126.3c-0.3-0.3-0.3-0.8,0-1.1c0.4-0.4,0.8-0.8,1.2-1.2c7.4-7.9,11.6-15,13.8-24.4c-1.1,9-4.4,19.5-12.2,29.3L130.1,126.3z
		 M144,77.4c0,0.2,0.1,0.3,0.1,0.5c-0.1,5.4-0.3,10-0.8,14.1c-5.2-0.7-9.2-5.2-9.5-10.7c2.8-2.5,5.9-3.9,9.4-4.3
		C143.6,76.9,143.9,77.1,144,77.4 M142.9,95c-0.6,3.4-1.3,6.4-2.4,9.3l-6.5-6.5c-0.2-0.2-0.2-0.4-0.2-0.6v-7.6
		C136,92.5,139.2,94.5,142.9,95 M147.1,78.9c0-1.1,0-2.1,0-3.2c0-0.2-0.1-0.4-0.2-0.6l-1-1c-0.2-0.2-0.4-0.2-0.6-0.2
		c-8.3,0.1-14.9,4.6-20.1,13.7c-0.2,0.4-0.1,0.9,0.3,1.1l1.2,0.7c0.4,0.2,0.9,0.1,1.1-0.3c0.9-1.7,1.9-3.1,2.9-4.4v13.9
		c0,0.2,0.1,0.4,0.2,0.6l8.2,8.2c-2.7,5.9-6.6,11-12.3,16.8l-18.5,2.9c-0.6,0.1-1.1-0.5-0.9-1.1c4.2-12.4,9.4-18.8,13.7-22.1
		c0.2-0.2,0.3-0.4,0.3-0.6V101c0-0.6-0.7-1-1.3-0.7c-0.1,0.1-0.3,0.2-0.4,0.3c-2.6-3.5-4-7.9-4-13.2c0-14.8,12.6-30.8,33-31.2
		c0.9,1.4,3.1,5.4,3.1,10.8c0,4.4-1.4,9-4,13l-0.6,0.6C147.3,79.9,147.2,79.4,147.1,78.9 M113,158.6l-1-6c-0.2-1.1-0.3-2.1-0.3-3.1
		c4.2-2.3,8.1-4.8,11.6-7.6l3.3,3L113,158.6z M110.3,140.6l-2.1-2.1l2.7-7.8l2.3,2.1c-0.4,2-1.1,3.6-1.8,5.4
		C110.9,139,110.6,139.8,110.3,140.6 M105.2,140.8c0.4-0.4,1-0.4,1.3,0l4,4c0.4,0.4,0.4,1,0,1.3l-19.7,19.7
		c-2.9,2.9-7.2,3.4-10.6,1.6c-0.6-0.3-0.7-1.1-0.2-1.5L105.2,140.8z M114.5,144.9C114.5,144.9,114.5,144.8,114.5,144.9l-1.9-1.9
		c0.4-1.3,0.9-2.5,1.4-3.7c0.6-1.4,1.1-2.7,1.6-4.2l5.7,5.1C119.2,141.8,116.9,143.4,114.5,144.9 M132,145.2c-0.3,0.3-0.8,0.3-1.1,0
		L114,129.6l13-2l11.3,10.7c0.3,0.3,0.3,0.9,0,1.2L132,145.2z M142,141.2l3.9,2.5c0.5,0.3,0.5,1.1,0,1.4l-5.2,2.9
		c-0.3,0.2-0.7,0.1-0.9-0.1l-2.1-2c-0.3-0.3-0.3-0.8,0-1.2l3.4-3.4C141.2,141,141.6,141,142,141.2 M176.8,94.8l-26.3,26.3
		c0.6-1.3,1.4-2.6,2.2-3.9c1.8-2.9,3.7-5.9,3.7-9.6c0-1.4-0.6-4-1.2-5.9c0-0.2,0-0.3,0-0.5c3.6-6,7.6-11.4,11.6-16.2L176.8,94.8z
		 M179.2,66.9c-6.3,6.2-15.1,15-22.9,26.3l0,0c-0.1,0.2-0.3,0.4-0.4,0.7c-1,1.4-2,2.9-2.9,4.5l0,0l-1.6,2.6c-0.1,0.2-0.2,0.5,0,0.8
		l0.2,0.5c0.1,0.2,0.2,0.5,0.3,0.8c0.7,2.6,1,4.2,1,4.8c0,2.7-1.5,5.1-3.1,7.8c-1.8,2.9-3.9,6.2-4.2,10.6l-7.7,7.7l-3.1-2.9
		c10.4-13,13-26.9,13.4-36.4c0.1-3.6,0-6.8-0.3-9.5l24.5-24.5c0.3-0.3,0.8-0.3,1.1,0l6.1,6.1L179.2,66.9z M154.5,62.9l10.6-0.2
		L153.8,74c0.7-2.4,1.1-4.8,1.1-7.3C154.9,65.5,154.7,64.2,154.5,62.9 M178.6,59.2c-0.3,0.3-0.8,0.3-1.1,0l-3.8-3.8l0,0l-0.2-0.2
		c-0.3-0.3-0.3-0.8,0-1.1l4.6-4.6c0.4-0.4,1-0.3,1.3,0.2l2.9,5.1c0.2,0.3,0.1,0.7-0.1,1L178.6,59.2z M217.2,36.5l-23,22.9
		c-0.2,0.2-0.4,0.2-0.6,0.2h-11.3l3.5-3.5c0.3-0.3,0.3-0.7,0.1-1l-6-10.5c-0.3-0.5-0.9-0.5-1.3-0.2l-9.5,9.5c-0.3,0.3-0.3,0.8,0,1.1
		l1.7,1.7l-2.8,2.8L153.8,60c-1.2-3.7-2.8-6-2.9-6.1l-0.4-0.6h-0.7c-1.9,0-3.9,0.2-5.8,0.5c1-1.4,0.9-2.6,0.6-3.3
		c-0.4-0.9-1.5-2.1-4.5-2.1l-10.8-0.2c-0.7,0-1.1-0.9-0.6-1.4l22.6-22.7c0.2-0.2,0.4-0.2,0.6-0.2h16.5c1,0,1.5,0.2,1.7,0.3
		c-0.1,0.2-0.3,0.6-0.9,1.1l-5.3,5.2c-1.1,1.1-0.8,2.2-0.7,2.7c0.8,1.9,3.7,2.1,4.6,2.1h48.8C217.4,35.2,217.7,36,217.2,36.5"/>
</g>
<g id="Capa_2">
</g>
</svg>
