<?xml version="1.0" encoding="utf-8"?>
<!-- Generator: Adobe Illustrator 25.3.1, SVG Export Plug-In . SVG Version: 6.00 Build 0)  -->
<svg version="1.1" id="Capa_1" xmlns="http://www.w3.org/2000/svg" xmlns:xlink="http://www.w3.org/1999/xlink" x="0px" y="0px"
	 viewBox="0 0 610 200" style="enable-background:new 0 0 610 200;" xml:space="preserve">
<g>
	<path d="M84.8,95L59.1,71.8c-1.6-1.5-4.1-1.3-5.6,0.3c-1.5,1.6-1.3,4.1,0.3,5.6l19.9,18H30.9c-2.2,0-3.9,1.8-3.9,3.9
		s1.8,3.9,3.9,3.9h43.6l-20.7,18.7c-1.6,1.5-1.8,4-0.3,5.6c1.5,1.6,4,1.8,5.6,0.3l25.7-23.2c2.7-2.5,2.9-6.8,0.4-9.5
		c-0.1-0.1-0.3-0.3-0.4-0.4V95z"/>
	<path d="M150.2,148.7c-2.2,0-3.9-1.8-3.9-3.9V89.6h-6.1c-2.2,0-3.9-1.8-3.9-3.9c0-2.2,1.8-3.9,3.9-3.9h10c2.2,0,3.9,1.8,3.9,3.9
		v52.9l8.1-3.7c1.9-1,4.3-0.2,5.3,1.7c1,1.9,0.2,4.3-1.7,5.3c-0.1,0-0.2,0.1-0.3,0.1l-13.7,6.2C151.4,148.5,150.8,148.7,150.2,148.7
		z"/>
	<circle cx="145.2" cy="63.5" r="12.2"/>
	<path d="M208.2,180h-94.4c-13.8,0-25-11.2-25.1-25.1v-26.9c0-2.2,1.8-3.9,3.9-3.9c2.2,0,3.9,1.8,3.9,3.9v26.9
		c0,9.5,7.7,17.2,17.2,17.2h90.4v-127c0-9.5-7.7-17.2-17.2-17.2H96.6v33.7c0,2.2-1.8,3.9-3.9,3.9c-2.2,0-3.9-1.8-3.9-3.9V23.9
		c0-2.2,1.8-3.9,3.9-3.9H187c13.8,0,25,11.2,25.1,25.1v131C212.1,178.2,210.3,180,208.2,180z"/>
	<g>
		<g>
			<path d="M288.8,69.9c-1,0.5-3,1-5.5,1c-6.1,0-10.7-4.1-10.7-12.1c0-8.1,5-12.5,11.3-12.5c2.5,0,4.2,0.5,4.9,0.9l-0.7,2.5
				c-1-0.5-2.3-0.8-4.1-0.8c-4.7,0-8.2,3.3-8.2,9.9c0,6.3,3.2,9.6,8.1,9.6c1.6,0,3.3-0.3,4.3-0.8L288.8,69.9z"/>
			<path d="M310.4,58.4c0,8.4-4.4,12.6-9.9,12.6c-5.6,0-9.5-4.7-9.5-12.2c0-7.7,4.1-12.5,9.9-12.5C306.7,46.2,310.4,51.1,310.4,58.4
				z M294.2,58.7c0,5.1,2.2,9.8,6.6,9.8c4.4,0,6.5-4.7,6.5-10c0-4.7-2-9.8-6.5-9.8C296.2,48.7,294.2,53.5,294.2,58.7z"/>
			<path d="M314.2,70.6v-24h3.2l6.7,11.8c1.5,2.7,2.9,5.5,3.9,8l0.1,0c-0.3-3.4-0.3-6.3-0.3-10.2v-9.6h2.8v24h-3l-6.7-12
				c-1.4-2.6-2.9-5.3-4-8.1l-0.1,0c0.2,3.1,0.2,6,0.2,10.3v9.7H314.2z"/>
			<path d="M335.1,67c1.2,0.8,3.1,1.4,4.9,1.4c3,0,4.7-1.7,4.7-4.1c0-2.2-1.3-3.5-4.1-4.8c-3.3-1.4-5.8-3.5-5.8-6.8
				c0-3.7,2.9-6.4,7.3-6.4c2.1,0,3.8,0.5,4.7,1.1l-0.8,2.5c-0.7-0.4-2.1-1-4-1c-3,0-4.2,1.9-4.2,3.5c0,2.3,1.4,3.3,4.4,4.7
				c3.7,1.7,5.5,3.8,5.5,7c0,3.8-2.8,6.9-7.9,6.9c-2.1,0-4.4-0.7-5.5-1.4L335.1,67z"/>
			<path d="M354.6,46.6v14.8c0,5,2.1,7.1,4.9,7.1c3.1,0,5.1-2.1,5.1-7.1V46.6h3v14.5c0,7-3.5,9.8-8.2,9.8c-4.5,0-7.8-2.7-7.8-9.7
				V46.6H354.6z"/>
			<path d="M372.6,46.6h3V68h9.2v2.5h-12.2V46.6z"/>
			<path d="M392.1,49.2h-6.4v-2.6h15.9v2.6h-6.5v21.4h-3V49.2z"/>
			<path d="M407.8,63.1l-2.2,7.4h-3l7.3-24h3.5l7.3,24h-3.1l-2.3-7.4H407.8z M414.7,60.8l-2-6.7c-0.5-1.6-0.8-3.2-1.2-4.7h-0.1
				c-0.3,1.5-0.7,3.2-1.1,4.7l-2,6.7H414.7z"/>
			<path d="M423.6,67c1.2,0.8,3.1,1.4,4.9,1.4c3,0,4.7-1.7,4.7-4.1c0-2.2-1.3-3.5-4.1-4.8c-3.3-1.4-5.8-3.5-5.8-6.8
				c0-3.7,2.9-6.4,7.3-6.4c2.1,0,3.8,0.5,4.7,1.1l-0.8,2.5c-0.7-0.4-2.1-1-4-1c-3,0-4.2,1.9-4.2,3.5c0,2.3,1.4,3.3,4.4,4.7
				c3.7,1.7,5.5,3.8,5.5,7c0,3.8-2.8,6.9-7.9,6.9c-2.1,0-4.4-0.7-5.5-1.4L423.6,67z"/>
			<path d="M447.1,70.6v-24h3.2l6.7,11.8c1.5,2.7,2.9,5.5,3.9,8l0.1,0c-0.3-3.4-0.3-6.3-0.3-10.2v-9.6h2.8v24h-3l-6.7-12
				c-1.4-2.6-2.9-5.3-4-8.1l-0.1,0c0.2,3.1,0.2,6,0.2,10.3v9.7H447.1z"/>
			<path d="M471.4,46.6v14.8c0,5,2.1,7.1,4.9,7.1c3.1,0,5.1-2.1,5.1-7.1V46.6h3v14.5c0,7-3.5,9.8-8.2,9.8c-4.5,0-7.8-2.7-7.8-9.7
				V46.6H471.4z"/>
			<path d="M500.7,59.3h-8.3V68h9.3v2.5h-12.3v-24h11.8v2.5h-8.8v7.7h8.3V59.3z"/>
			<path d="M505,67c1.2,0.8,3.1,1.4,4.9,1.4c3,0,4.7-1.7,4.7-4.1c0-2.2-1.3-3.5-4.1-4.8c-3.3-1.4-5.8-3.5-5.8-6.8
				c0-3.7,2.9-6.4,7.3-6.4c2.1,0,3.8,0.5,4.7,1.1l-0.8,2.5c-0.7-0.4-2.1-1-4-1c-3,0-4.2,1.9-4.2,3.5c0,2.3,1.4,3.3,4.4,4.7
				c3.7,1.7,5.5,3.8,5.5,7c0,3.8-2.8,6.9-7.9,6.9c-2.1,0-4.4-0.7-5.5-1.4L505,67z"/>
			<path d="M525.6,49.2h-6.4v-2.6H535v2.6h-6.5v21.4h-3V49.2z"/>
			<path d="M537.6,46.9c1.4-0.3,3.5-0.5,5.3-0.5c3,0,5.1,0.6,6.5,1.9c1.2,1.1,1.8,2.7,1.8,4.6c0,3.1-1.8,5.2-4.3,6.1v0.1
				c1.8,0.6,2.9,2.3,3.4,5c0.7,3.3,1.3,5.5,1.7,6.4H549c-0.4-0.7-0.9-2.8-1.5-5.8c-0.7-3.3-1.9-4.5-4.5-4.6h-2.4v10.4h-3V46.9z
				 M540.6,57.9h2.6c3.1,0,5.1-1.8,5.1-4.6c0-3-1.9-4.5-5.1-4.5c-1.2,0-2.1,0.1-2.6,0.2V57.9z"/>
			<path d="M559,63.1l-2.2,7.4h-3l7.3-24h3.5l7.3,24h-3.1l-2.3-7.4H559z M566,60.8l-2-6.7c-0.5-1.6-0.8-3.2-1.2-4.7h-0.1
				c-0.3,1.5-0.7,3.2-1.1,4.7l-2,6.7H566z"/>
			<path d="M574.8,67c1.2,0.8,3.1,1.4,4.9,1.4c3,0,4.7-1.7,4.7-4.1c0-2.2-1.3-3.5-4.1-4.8c-3.3-1.4-5.8-3.5-5.8-6.8
				c0-3.7,2.9-6.4,7.3-6.4c2.1,0,3.8,0.5,4.7,1.1l-0.8,2.5c-0.7-0.4-2.1-1-4-1c-3,0-4.2,1.9-4.2,3.5c0,2.3,1.4,3.3,4.4,4.7
				c3.7,1.7,5.5,3.8,5.5,7c0,3.8-2.8,6.9-7.9,6.9c-2.1,0-4.4-0.7-5.5-1.4L574.8,67z"/>
			<path d="M292,101c0,8.4-4.4,12.6-9.9,12.6c-5.6,0-9.5-4.7-9.5-12.2c0-7.7,4.1-12.5,9.9-12.5C288.3,88.9,292,93.7,292,101z
				 M275.8,101.3c0,5.1,2.2,9.8,6.6,9.8c4.4,0,6.5-4.7,6.5-10c0-4.7-2-9.8-6.5-9.8C277.8,91.4,275.8,96.2,275.8,101.3z"/>
			<path d="M295.8,89.6c1.3-0.3,3.2-0.5,5.2-0.5c2.8,0,4.8,0.5,6.2,1.7c1.2,0.9,1.9,2.4,1.9,4.2c0,2.4-1.5,4.4-3.9,5.3v0.1
				c2.4,0.6,4.8,2.6,4.8,6c0,2-0.8,3.6-1.9,4.8c-1.6,1.5-4.1,2.2-7.7,2.2c-2,0-3.5-0.1-4.4-0.3V89.6z M298.8,99.4h2.4
				c2.9,0,4.9-1.7,4.9-4.1c0-2.6-1.8-3.9-4.8-3.9c-1.2,0-1.9,0.1-2.4,0.2V99.4z M298.8,110.9c0.5,0.1,1.3,0.1,2.2,0.1
				c3.1,0,5.7-1.3,5.7-4.7c0-3.3-2.7-4.7-5.8-4.7h-2.2V110.9z"/>
			<path d="M313.7,89.2h3v21.4h9.2v2.5h-12.2V89.2z"/>
			<path d="M332.1,89.2v24h-3v-24H332.1z"/>
			<path d="M353.5,112.3c-1.3,0.5-3.7,1.2-6.4,1.2c-3.2,0-5.9-0.8-8-2.9c-2-1.9-3.2-5.2-3.2-9.1c0-7.8,4.9-12.4,11.8-12.4
				c2.4,0,4.3,0.5,5.2,1l-0.7,2.5c-1.1-0.5-2.5-0.9-4.5-0.9c-5,0-8.6,3.3-8.6,9.7c0,6.5,3.4,9.7,8.2,9.7c1.7,0,2.8-0.2,3.4-0.5v-7.3
				h-4.3v-2.4h7.2V112.3z"/>
			<path d="M361.5,105.8l-2.2,7.4h-3l7.3-24h3.5l7.3,24h-3.1l-2.3-7.4H361.5z M368.5,103.4l-2-6.7c-0.5-1.6-0.8-3.2-1.2-4.7h-0.1
				c-0.3,1.5-0.7,3.2-1.1,4.7l-2,6.7H368.5z"/>
			<path d="M392.7,112.5c-1,0.5-3,1-5.5,1c-6.1,0-10.7-4.1-10.7-12.1c0-8.1,5-12.5,11.3-12.5c2.5,0,4.2,0.5,4.9,0.9l-0.7,2.5
				c-1-0.5-2.3-0.8-4.1-0.8c-4.7,0-8.2,3.3-8.2,9.9c0,6.3,3.2,9.6,8.1,9.6c1.6,0,3.3-0.3,4.3-0.8L392.7,112.5z"/>
			<path d="M399.2,89.2v24h-3v-24H399.2z"/>
			<path d="M422.4,101c0,8.4-4.4,12.6-9.9,12.6c-5.6,0-9.5-4.7-9.5-12.2c0-7.7,4.1-12.5,9.9-12.5C418.7,88.9,422.4,93.7,422.4,101z
				 M406.1,101.3c0,5.1,2.2,9.8,6.6,9.8c4.4,0,6.5-4.7,6.5-10c0-4.7-2-9.8-6.5-9.8C408.2,91.4,406.1,96.2,406.1,101.3z"/>
			<path d="M426.2,113.2v-24h3.2l6.7,11.8c1.5,2.7,2.9,5.5,3.9,8l0.1,0c-0.3-3.4-0.3-6.3-0.3-10.2v-9.6h2.8v24h-3l-6.7-12
				c-1.4-2.6-2.9-5.3-4-8.1l-0.1,0c0.2,3.1,0.2,6,0.2,10.3v9.7H426.2z"/>
			<path d="M458.8,101.9h-8.3v8.8h9.3v2.5h-12.3v-24h11.8v2.5h-8.8v7.7h8.3V101.9z"/>
			<path d="M463.1,109.6c1.2,0.8,3.1,1.4,4.9,1.4c3,0,4.7-1.7,4.7-4.1c0-2.2-1.3-3.5-4.1-4.8c-3.3-1.4-5.8-3.5-5.8-6.8
				c0-3.7,2.9-6.4,7.3-6.4c2.1,0,3.8,0.5,4.7,1.1l-0.8,2.5c-0.7-0.4-2.1-1-4-1c-3,0-4.2,1.9-4.2,3.5c0,2.3,1.4,3.3,4.4,4.7
				c3.7,1.7,5.5,3.8,5.5,7c0,3.8-2.8,6.9-7.9,6.9c-2.1,0-4.4-0.7-5.5-1.4L463.1,109.6z"/>
			<path d="M486.6,89.6c1.6-0.3,3.6-0.5,5.7-0.5c3.9,0,6.6,0.9,8.5,2.6c2.1,1.8,3.3,4.7,3.3,8.9c0,4.4-1.3,7.5-3.3,9.6
				c-2,2.1-5.3,3.2-9.4,3.2c-1.9,0-3.5-0.1-4.9-0.3V89.6z M489.6,110.8c0.7,0.1,1.6,0.1,2.5,0.1c5.5,0,8.9-3.2,8.9-10.2
				c0-5.8-2.8-9.3-8.5-9.3c-1.3,0-2.2,0.1-2.9,0.3V110.8z"/>
			<path d="M519.2,101.9h-8.3v8.8h9.3v2.5h-12.3v-24h11.8v2.5h-8.8v7.7h8.3V101.9z"/>
			<path d="M277.9,134.5h-6.4v-2.6h15.9v2.6h-6.5v21.4h-3V134.5z"/>
			<path d="M290,132.2c1.4-0.3,3.5-0.5,5.3-0.5c3,0,5.1,0.6,6.5,1.9c1.2,1.1,1.8,2.7,1.8,4.6c0,3.1-1.8,5.2-4.3,6.1v0.1
				c1.8,0.6,2.9,2.3,3.4,5c0.7,3.3,1.3,5.5,1.7,6.4h-3.1c-0.4-0.7-0.9-2.8-1.5-5.8c-0.7-3.3-1.9-4.5-4.5-4.6H293v10.4h-3V132.2z
				 M293,143.2h2.6c3.1,0,5.1-1.8,5.1-4.6c0-3-1.9-4.5-5.1-4.5c-1.2,0-2.1,0.1-2.6,0.2V143.2z"/>
			<path d="M311.4,148.4l-2.2,7.4h-3l7.3-24h3.5l7.3,24h-3.1l-2.3-7.4H311.4z M318.4,146.1l-2-6.7c-0.5-1.6-0.8-3.2-1.2-4.7h-0.1
				c-0.3,1.5-0.7,3.2-1.1,4.7l-2,6.7H318.4z"/>
			<path d="M327.7,155.9v-24h3.2l6.7,11.8c1.5,2.7,2.9,5.5,3.9,8l0.1,0c-0.3-3.4-0.3-6.3-0.3-10.2v-9.6h2.8v24h-3l-6.7-12
				c-1.4-2.6-2.9-5.3-4-8.1l-0.1,0c0.2,3.1,0.2,6,0.2,10.3v9.7H327.7z"/>
			<path d="M348.6,152.3c1.2,0.8,3.1,1.4,4.9,1.4c3,0,4.7-1.7,4.7-4.1c0-2.2-1.3-3.5-4.1-4.8c-3.3-1.4-5.8-3.5-5.8-6.8
				c0-3.7,2.9-6.4,7.3-6.4c2.1,0,3.8,0.5,4.7,1.1l-0.8,2.5c-0.7-0.4-2.1-1-4-1c-3,0-4.2,1.9-4.2,3.5c0,2.3,1.4,3.3,4.4,4.7
				c3.7,1.7,5.5,3.8,5.5,7c0,3.8-2.8,6.9-7.9,6.9c-2.1,0-4.4-0.7-5.5-1.4L348.6,152.3z"/>
			<path d="M365.1,132.2c1.4-0.3,3.1-0.5,5.4-0.5c2.8,0,4.9,0.7,6.3,1.9c1.3,1.1,2,2.9,2,5c0,2.2-0.6,3.8-1.7,5.1
				c-1.6,1.8-4.1,2.6-6.8,2.6c-0.8,0-1.5,0-2.1-0.2v9.7h-3V132.2z M368.1,143.7c0.6,0.2,1.3,0.2,2.1,0.2c3.4,0,5.6-1.8,5.6-5.1
				c0-3-1.9-4.7-5.2-4.7c-1.1,0-2,0.1-2.5,0.2V143.7z"/>
			<path d="M386.2,148.4l-2.2,7.4h-3l7.3-24h3.5l7.3,24H396l-2.3-7.4H386.2z M393.2,146.1l-2-6.7c-0.5-1.6-0.8-3.2-1.2-4.7h-0.1
				c-0.3,1.5-0.7,3.2-1.1,4.7l-2,6.7H393.2z"/>
			<path d="M402.5,132.2c1.4-0.3,3.5-0.5,5.3-0.5c3,0,5.1,0.6,6.5,1.9c1.2,1.1,1.8,2.7,1.8,4.6c0,3.1-1.8,5.2-4.3,6.1v0.1
				c1.8,0.6,2.9,2.3,3.4,5c0.7,3.3,1.3,5.5,1.7,6.4h-3.1c-0.4-0.7-0.9-2.8-1.5-5.8c-0.7-3.3-1.9-4.5-4.5-4.6h-2.4v10.4h-3V132.2z
				 M405.4,143.2h2.6c3.1,0,5.1-1.8,5.1-4.6c0-3-1.9-4.5-5.1-4.5c-1.2,0-2.1,0.1-2.6,0.2V143.2z"/>
			<path d="M431.5,144.6h-8.3v8.8h9.3v2.5h-12.3v-24H432v2.5h-8.8v7.7h8.3V144.6z"/>
			<path d="M436.2,155.9v-24h3.2l6.7,11.8c1.5,2.7,2.9,5.5,3.9,8l0.1,0c-0.3-3.4-0.3-6.3-0.3-10.2v-9.6h2.8v24h-3l-6.7-12
				c-1.4-2.6-2.9-5.3-4-8.1l-0.1,0c0.2,3.1,0.2,6,0.2,10.3v9.7H436.2z"/>
			<path d="M472.4,155.2c-1,0.5-3,1-5.5,1c-6.1,0-10.7-4.1-10.7-12.1c0-8.1,5-12.5,11.3-12.5c2.5,0,4.2,0.5,4.9,0.9l-0.7,2.5
				c-1-0.5-2.3-0.8-4.1-0.8c-4.7,0-8.2,3.3-8.2,9.9c0,6.3,3.2,9.6,8.1,9.6c1.6,0,3.3-0.3,4.3-0.8L472.4,155.2z"/>
			<path d="M479,131.9v24h-3v-24H479z"/>
			<path d="M487.6,148.4l-2.2,7.4h-3l7.3-24h3.5l7.3,24h-3.1l-2.3-7.4H487.6z M494.6,146.1l-2-6.7c-0.5-1.6-0.8-3.2-1.2-4.7h-0.1
				c-0.3,1.5-0.7,3.2-1.1,4.7l-2,6.7H494.6z"/>
		</g>
	</g>
</g>
</svg>
